<svg width="150" height="150" viewBox="0 0 150 150" fill="none" xmlns="http://www.w3.org/2000/svg">
<path d="M75.0005 81.25C78.4523 81.25 81.2505 78.4518 81.2505 75C81.2505 71.5482 78.4523 68.75 75.0005 68.75C71.5487 68.75 68.7505 71.5482 68.7505 75C68.7505 78.4518 71.5487 81.25 75.0005 81.25Z" fill="#9A84FF" stroke="#9A84FF"/>
<path d="M74.9992 12.9437C83.37 12.9437 91.0678 19.7416 96.6994 31.0047C102.318 42.2412 105.806 57.7955 105.806 75.0002C105.806 92.2047 102.318 107.759 96.6994 118.996C91.0678 130.259 83.37 137.056 74.9992 137.056C66.6285 137.056 58.931 130.259 53.2996 118.996C47.6813 107.759 44.1933 92.2047 44.1932 75.0002C44.1932 57.7954 47.6813 42.2412 53.2996 31.0047C58.931 19.7417 66.6285 12.9439 74.9992 12.9437Z" stroke="#9A84FF"/>
<path d="M128.743 43.9706C132.927 51.22 130.89 61.2857 123.951 71.7943C117.029 82.2781 105.304 93.0763 90.4029 101.679C75.5035 110.281 60.2891 115.038 47.749 115.79C35.1791 116.545 25.4436 113.276 21.2583 106.027C17.0731 98.7772 19.1107 88.7127 26.0489 78.2043C32.9709 67.7205 44.6972 56.9226 59.597 48.3202C74.4968 39.7178 89.7115 34.9615 102.251 34.2087C114.821 33.4542 124.557 36.7215 128.743 43.9706Z" stroke="#9A84FF"/>
<path d="M128.743 106.028C132.927 98.779 130.89 88.713 123.951 78.2044C117.029 67.7207 105.304 56.9227 90.4029 48.3203C75.5035 39.718 60.2891 34.9616 47.749 34.2088C35.1791 33.4544 25.4436 36.7227 21.2583 43.972C17.0731 51.2212 19.1107 61.286 26.0489 71.7945C32.9709 82.2782 44.6972 93.0764 59.597 101.679C74.4968 110.281 89.7115 115.038 102.251 115.79C114.821 116.545 124.557 113.278 128.743 106.028Z" stroke="#9A84FF"/>
</svg>
