<svg width="49" height="49" viewBox="0 0 49 49" fill="none" xmlns="http://www.w3.org/2000/svg">
<path d="M6.125 20.1188C6.125 18.0281 7.81981 16.3333 9.91046 16.3333C11.3443 16.3333 12.655 15.5232 13.2963 14.2408L15.2278 10.3778C15.7657 9.30197 16.0346 8.76405 16.5179 8.46535C17.0012 8.16666 17.6027 8.16666 18.8055 8.16666H30.1945C31.3973 8.16666 31.9988 8.16666 32.4821 8.46535C32.9654 8.76405 33.2343 9.30197 33.7722 10.3778L35.7037 14.2408C36.345 15.5232 37.6557 16.3333 39.0895 16.3333C41.1802 16.3333 42.875 18.0281 42.875 20.1188V34.8333C42.875 37.6618 42.875 39.076 41.9963 39.9546C41.1176 40.8333 39.7034 40.8333 36.875 40.8333H12.125C9.29657 40.8333 7.88236 40.8333 7.00368 39.9546C6.125 39.076 6.125 37.6618 6.125 34.8333V20.1188Z" stroke="#D9D9D9"/>
<circle cx="24.4997" cy="26.5417" r="7.66667" stroke="#D9D9D9"/>
</svg>
