<svg width="32" height="32" viewBox="0 0 32 32" fill="none" xmlns="http://www.w3.org/2000/svg">
<path d="M5.33325 12C5.33325 8.22876 5.33325 6.34315 6.50483 5.17157C7.6764 4 9.56205 4 13.3333 4H18.6666C22.4378 4 24.3235 4 25.495 5.17157C26.6666 6.34315 26.6666 8.22876 26.6666 12V21.1035C26.6666 24.6812 26.6666 26.47 25.5409 27.0172C24.4151 27.5644 23.0085 26.4591 20.1953 24.2487L19.2949 23.5413C17.7132 22.2985 16.9222 21.6771 15.9999 21.6771C15.0776 21.6771 14.2867 22.2985 12.7049 23.5413L11.8045 24.2487C8.9913 26.4591 7.5847 27.5644 6.45898 27.0172C5.33325 26.47 5.33325 24.6812 5.33325 21.1035V12Z" stroke="#FEFEFC"/>
</svg>
