<svg width="22" height="22" viewBox="0 0 22 22" fill="none" xmlns="http://www.w3.org/2000/svg">
<path d="M9.16699 11.4583L10.8943 9.73107C10.9528 9.67249 11.0478 9.67249 11.1064 9.73107L12.8337 11.4583" stroke="#6E6E6E"/>
<path d="M11 13.75V9.625" stroke="#6E6E6E"/>
<path d="M4.125 6.525C4.125 5.68492 4.125 5.26488 4.28849 4.94401C4.4323 4.66177 4.66177 4.4323 4.94401 4.28849C5.26488 4.125 5.68492 4.125 6.525 4.125H8.59737C8.97308 4.125 9.16094 4.125 9.33146 4.17679C9.48241 4.22263 9.62285 4.2978 9.74472 4.39798C9.88239 4.51114 9.98659 4.66745 10.195 4.98007L10.8884 6.02029C11.0967 6.33292 11.2009 6.48923 11.3386 6.60239C11.4605 6.70257 11.6009 6.77773 11.7519 6.82358C11.9224 6.87537 12.1103 6.87537 12.486 6.87537H15.475C16.3151 6.87537 16.7351 6.87537 17.056 7.03886C17.3382 7.18267 17.5677 7.41214 17.7115 7.69438C17.875 8.01525 17.875 8.43529 17.875 9.27537V14.5587C17.875 15.3988 17.875 15.8188 17.7115 16.1397C17.5677 16.4219 17.3382 16.6514 17.056 16.7952C16.7351 16.9587 16.3151 16.9587 15.475 16.9587H6.525C5.68492 16.9587 5.26488 16.9587 4.94401 16.7952C4.66177 16.6514 4.4323 16.4219 4.28849 16.1397C4.125 15.8188 4.125 15.3988 4.125 14.5587V6.525Z" stroke="#6E6E6E"/>
</svg>
