<svg width="26" height="26" viewBox="0 0 26 26" fill="none" xmlns="http://www.w3.org/2000/svg">
<path d="M4.33301 9.75C4.33301 6.68587 4.33301 5.15381 5.28491 4.2019C6.23681 3.25 7.76888 3.25 10.833 3.25H15.1663C18.2305 3.25 19.7625 3.25 20.7144 4.2019C21.6663 5.15381 21.6663 6.68587 21.6663 9.75V17.1466C21.6663 20.0535 21.6663 21.5069 20.7517 21.9515C19.837 22.396 18.6942 21.4981 16.4084 19.7021L15.6769 19.1273C14.3917 18.1175 13.749 17.6126 12.9997 17.6126C12.2503 17.6126 11.6077 18.1175 10.3224 19.1273L9.59093 19.7021C7.30518 21.4981 6.16231 22.396 5.24766 21.9515C4.33301 21.5069 4.33301 20.0535 4.33301 17.1466V9.75Z" fill="#FEFEFC" stroke="#FEFEFC" stroke-width="2"/>
</svg>
