<svg width="27" height="27" viewBox="0 0 27 27" fill="none" xmlns="http://www.w3.org/2000/svg">
<path d="M2.52637 25.291C2.5176 25.2925 2.50879 25.293 2.5 25.2939V25.1309L2.52637 25.291ZM2.76855 25.165C2.73295 25.2006 2.69392 25.2281 2.65332 25.249C2.61987 25.2662 2.57793 25.2825 2.52832 25.291L2.5 25.127V24.8975L2.76855 25.165ZM2.09863 25.127C2.09286 25.1198 2.08642 25.1131 2.08105 25.1055L2.2168 25.0088L2.09863 25.127ZM2.21777 25.0078L2.08008 25.1055C2.03019 25.0347 2 24.9469 2 24.8467H2.37988L2.21777 25.0078Z" stroke="#FEFEFC"/>
<path d="M8.5 10.5H19.5" stroke="#FEFEFC" stroke-linecap="round" stroke-linejoin="round"/>
<path d="M8.5 15.5H15.5" stroke="#FEFEFC" stroke-linecap="round" stroke-linejoin="round"/>
</svg>
