<svg width="12" height="24" viewBox="0 0 12 24" fill="none" xmlns="http://www.w3.org/2000/svg">
<path d="M9.34036 0.0525558C9.28498 0.0806815 7.90515 1.72135 6.27151 3.69484C4.64249 5.66833 2.56121 8.17621 1.65671 9.27312C-0.12461 11.42 -0.129225 11.4294 0.110745 11.6497C0.179967 11.7154 0.909107 11.9498 2.45045 12.3951C3.68261 12.7466 4.70248 13.0513 4.72555 13.0701C4.75324 13.0982 4.47174 13.9279 3.90412 15.4842C3.82105 15.7139 3.23497 17.3405 2.61197 19.0937C1.98436 20.8469 1.40751 22.45 1.33367 22.6563C0.959869 23.6969 0.95064 23.7438 1.13985 23.8938C1.41674 24.1188 1.46288 24.0813 2.52429 22.8204C2.88424 22.3938 5.10397 19.7593 7.46213 16.9608C9.8203 14.1623 11.8047 11.8044 11.8785 11.7201C12.0216 11.5372 12.04 11.345 11.9247 11.1997C11.86 11.1294 11.2924 10.9466 9.53418 10.4403C8.26511 10.07 7.22216 9.77 7.21755 9.77C7.21293 9.76532 7.59596 8.41528 8.06206 6.76524C10.0049 -0.0646349 9.88952 0.361939 9.82953 0.211935C9.74646 0.0150547 9.52957 -0.0599473 9.34036 0.0525558ZM8.56507 2.38699C7.78978 5.08238 6.41919 9.96688 6.41919 10.0466C6.41919 10.2716 6.52994 10.3185 8.66198 10.9325C9.80184 11.2607 10.7986 11.5513 10.8817 11.5747L11.0294 11.6216L10.9002 11.7716C10.8263 11.856 9.93105 12.9107 8.91118 14.1248C7.89131 15.3389 6.89451 16.5155 6.69607 16.7499C6.50225 16.9796 5.45469 18.2218 4.37021 19.5062C3.29035 20.7953 2.4043 21.8313 2.4043 21.8172C2.4043 21.7938 4.68402 15.4139 4.86861 14.9123C5.17319 14.0967 5.58852 12.8779 5.58852 12.7935C5.58852 12.5545 5.46392 12.5076 3.20267 11.856C2.00282 11.5138 1.01986 11.2185 1.01986 11.1997C1.01986 11.1669 1.6244 10.431 4.68863 6.73711C5.82849 5.35895 7.18524 3.72297 7.70672 3.09482C8.22358 2.47137 8.65275 1.96511 8.66198 1.97448C8.67121 1.98386 8.62968 2.16668 8.56507 2.38699Z" fill="#171717"/>
</svg>
