<svg width="18" height="18" viewBox="0 0 18 18" fill="none" xmlns="http://www.w3.org/2000/svg">
<path d="M9.69238 1.50488L9.74141 1.00729L9.74109 1.00726L9.69238 1.50488ZM10.5752 2.30371L11.0655 2.20556L11.0655 2.20555L10.5752 2.30371ZM10.6016 2.52148L10.104 2.5711V2.5711L10.6016 2.52148ZM10.6514 2.91016L10.1661 3.03047L10.1661 3.03064L10.6514 2.91016ZM12.1367 3.52637L12.3943 3.95489L12.3945 3.9548L12.1367 3.52637ZM12.4482 3.28516L12.1317 2.89814V2.89814L12.4482 3.28516ZM12.6211 3.15039L12.3441 2.73412L12.3441 2.73413L12.6211 3.15039ZM13.8086 3.20996L14.1257 2.82336L14.1256 2.82333L13.8086 3.20996ZM13.9678 3.36133L13.6142 3.71488L13.9678 3.36133ZM14.79 4.19043L15.1765 3.87323L15.1765 3.87323L14.79 4.19043ZM14.8496 5.37891L15.2657 5.65619L15.2659 5.65593L14.8496 5.37891ZM14.7139 5.55176L14.327 5.23503L14.7139 5.55176ZM14.4736 5.86133L14.0454 5.60323L14.0453 5.60335L14.4736 5.86133ZM15.0889 7.34766L14.968 7.83283L14.9681 7.83286L15.0889 7.34766ZM15.4785 7.39746L15.4286 7.89496L15.4785 7.39746ZM15.6973 7.4248L15.7959 6.93464L15.7959 6.93463L15.6973 7.4248ZM16.4951 8.30664L16.9927 8.25771L16.9927 8.25745L16.4951 8.30664ZM16.4951 9.69238L16.9927 9.74141L16.9927 9.74109L16.4951 9.69238ZM15.6963 10.5752L15.7944 11.0655L15.7944 11.0655L15.6963 10.5752ZM15.4785 10.6016L15.4289 10.104V10.104L15.4785 10.6016ZM15.0898 10.6514L14.9695 10.1661L14.9694 10.1661L15.0898 10.6514ZM14.4736 12.1367L14.0451 12.3943L14.0452 12.3945L14.4736 12.1367ZM14.7148 12.4473L14.3278 12.7638L14.7148 12.4473ZM14.8496 12.6211L15.2659 12.3442L15.2659 12.3441L14.8496 12.6211ZM14.79 13.8096L15.1763 14.127L15.1766 14.1268L14.79 13.8096ZM14.6387 13.9678L14.992 14.3216L14.9921 14.3214L14.6387 13.9678ZM13.9678 14.6377L13.6145 14.2839L13.6143 14.2841L13.9678 14.6377ZM13.8086 14.79L14.1254 15.1769L14.1256 15.1767L13.8086 14.79ZM12.6211 14.8486L12.344 15.2648L12.3441 15.2649L12.6211 14.8486ZM12.4482 14.7139L12.1317 15.1009L12.4482 14.7139ZM12.1367 14.4727L12.3944 14.0441L12.3943 14.0441L12.1367 14.4727ZM10.6514 15.0879L10.1662 14.967L10.1661 14.9673L10.6514 15.0879ZM10.6016 15.4785L10.104 15.4289L10.6016 15.4785ZM10.5752 15.6963L11.0654 15.7945L11.0655 15.7944L10.5752 15.6963ZM9.69336 16.4951L9.7425 16.9927L9.74267 16.9927L9.69336 16.4951ZM9.47363 16.5V17V16.5ZM8.30664 16.4951L8.25745 16.9927L8.25771 16.9927L8.30664 16.4951ZM7.4248 15.6973L6.93463 15.7959L6.93464 15.7959L7.4248 15.6973ZM7.39746 15.4785L7.89496 15.4286V15.4286L7.39746 15.4785ZM7.34766 15.0889L7.83286 14.9681L7.83283 14.968L7.34766 15.0889ZM5.86133 14.4736L5.60335 14.0453L5.60323 14.0454L5.86133 14.4736ZM5.55176 14.7139L5.23503 14.327L5.55176 14.7139ZM5.37891 14.8496L5.65593 15.2659L5.65619 15.2657L5.37891 14.8496ZM4.19043 14.79L3.87323 15.1765L3.87323 15.1765L4.19043 14.79ZM3.20996 13.8086L2.82333 14.1256L2.82336 14.1257L3.20996 13.8086ZM3.15039 12.6211L2.73413 12.3441L2.73412 12.3441L3.15039 12.6211ZM3.28516 12.4482L2.89814 12.1317V12.1317L3.28516 12.4482ZM3.52637 12.1367L3.9548 12.3945L3.95489 12.3943L3.52637 12.1367ZM2.91016 10.6514L3.03064 10.1661L3.03047 10.1661L2.91016 10.6514ZM2.52148 10.6016L2.5711 10.104L2.52148 10.6016ZM2.30371 10.5752L2.20555 11.0655L2.20556 11.0655L2.30371 10.5752ZM1.50488 9.69238L1.00726 9.74109L1.00729 9.74141L1.50488 9.69238ZM1.50488 8.30664L1.00731 8.25747L1.0073 8.25749L1.50488 8.30664ZM2.30273 7.4248L2.20428 6.93459L2.20408 6.93463L2.30273 7.4248ZM2.52148 7.39746L2.57125 7.89498V7.89498L2.52148 7.39746ZM2.91113 7.34863L3.03149 7.83393L3.03198 7.83381L2.91113 7.34863ZM3.52734 5.86328L3.95603 5.60594L3.95589 5.6057L3.52734 5.86328ZM3.28613 5.55176L3.67315 5.23518V5.23518L3.28613 5.55176ZM3.15039 5.37793L2.73407 5.65483L2.73408 5.65485L3.15039 5.37793ZM3.20996 4.19043L2.82338 3.87333L2.82334 3.87337L3.20996 4.19043ZM3.36133 4.03125L3.00803 3.67744L3.00786 3.67762L3.36133 4.03125ZM4.03223 3.36133L4.38552 3.71514L4.3857 3.71496L4.03223 3.36133ZM4.19141 3.20898L3.8746 2.82216L3.8744 2.82232L4.19141 3.20898ZM5.37891 3.15039L5.65603 2.73421L5.65589 2.73412L5.37891 3.15039ZM5.55176 3.28516L5.86832 2.89813L5.55176 3.28516ZM5.8623 3.52637L5.60452 3.95479L5.60461 3.95485L5.8623 3.52637ZM7.34863 2.91016L7.83384 3.03088L7.83393 3.03052L7.34863 2.91016ZM7.39746 2.52051L6.89995 2.47073V2.47073L7.39746 2.52051ZM7.4248 2.30371L6.93458 2.20534L6.93452 2.20563L7.4248 2.30371ZM8.30664 1.50488L8.25757 1.0073L8.25749 1.0073L8.30664 1.50488ZM8.52539 1.5V1V1V1.5ZM9.69238 1.50488L9.64336 2.00247C9.86254 2.02407 10.0418 2.18639 10.0849 2.40187L10.5752 2.30371L11.0655 2.20555C10.9359 1.55816 10.398 1.07198 9.74141 1.00729L9.69238 1.50488ZM10.5752 2.30371L10.0849 2.40186C10.0885 2.41965 10.0915 2.44531 10.104 2.5711L10.6016 2.52148L11.0991 2.47187C11.0892 2.37215 11.0812 2.28415 11.0655 2.20556L10.5752 2.30371ZM10.6016 2.52148L10.104 2.5711C10.1233 2.7644 10.1378 2.91646 10.1661 3.03047L10.6514 2.91016L11.1367 2.78984C11.1303 2.76397 11.1222 2.70353 11.0991 2.47187L10.6016 2.52148ZM10.6514 2.91016L10.1661 3.03064C10.4091 4.00956 11.5295 4.47479 12.3943 3.95489L12.1367 3.52637L11.8791 3.09784C11.5911 3.27097 11.2177 3.1163 11.1366 2.78967L10.6514 2.91016ZM12.1367 3.52637L12.3945 3.9548C12.4957 3.89393 12.6157 3.79416 12.7648 3.67217L12.4482 3.28516L12.1317 2.89814C11.949 3.04759 11.9014 3.08445 11.8789 3.09794L12.1367 3.52637ZM12.4482 3.28516L12.7648 3.67217C12.8598 3.59451 12.8823 3.57716 12.8981 3.56665L12.6211 3.15039L12.3441 2.73413C12.278 2.77813 12.2123 2.83221 12.1317 2.89814L12.4482 3.28516ZM12.6211 3.15039L12.8981 3.56666C13.0808 3.44507 13.3213 3.45701 13.4915 3.59659L13.8086 3.20996L14.1256 2.82333C13.616 2.4054 12.8934 2.36864 12.3441 2.73412L12.6211 3.15039ZM13.8086 3.20996L13.4915 3.59657C13.5069 3.60915 13.5294 3.63004 13.6142 3.71488L13.9678 3.36133L14.3213 3.00777C14.2455 2.93191 14.1865 2.87328 14.1257 2.82336L13.8086 3.20996ZM13.9678 3.36133L13.6142 3.71488L14.2851 4.38578L14.6387 4.03223L14.9922 3.67867L14.3213 3.00777L13.9678 3.36133ZM14.6387 4.03223L14.2851 4.38578C14.3733 4.47391 14.3918 4.49335 14.4035 4.50763L14.79 4.19043L15.1765 3.87323C15.1259 3.81157 15.0643 3.75072 14.9922 3.67867L14.6387 4.03223ZM14.79 4.19043L14.4035 4.50763C14.5431 4.67769 14.5551 4.91891 14.4334 5.10188L14.8496 5.37891L15.2659 5.65593C15.6314 5.1067 15.595 4.38314 15.1765 3.87323L14.79 4.19043ZM14.8496 5.37891L14.4335 5.10162C14.4236 5.11648 14.4079 5.13617 14.327 5.23503L14.7139 5.55176L15.1008 5.86849C15.1633 5.79206 15.2211 5.72308 15.2657 5.65619L14.8496 5.37891ZM14.7139 5.55176L14.327 5.23503C14.2062 5.38259 14.1063 5.50211 14.0454 5.60323L14.4736 5.86133L14.9019 6.11942C14.9153 6.09716 14.9511 6.05135 15.1008 5.86849L14.7139 5.55176ZM14.4736 5.86133L14.0453 5.60335C13.5246 6.46785 13.9894 7.58902 14.968 7.83283L15.0889 7.34766L15.2097 6.86249C14.8831 6.78112 14.7286 6.40712 14.9019 6.11931L14.4736 5.86133ZM15.0889 7.34766L14.9681 7.83286C15.0825 7.86131 15.2365 7.87568 15.4286 7.89496L15.4785 7.39746L15.5284 6.89996C15.2945 6.87649 15.2351 6.86879 15.2096 6.86245L15.0889 7.34766ZM15.4785 7.39746L15.4286 7.89496C15.5496 7.9071 15.5796 7.91114 15.5986 7.91498L15.6973 7.4248L15.7959 6.93463C15.7183 6.91902 15.6342 6.91057 15.5284 6.89996L15.4785 7.39746ZM15.6973 7.4248L15.5986 7.91497C15.8141 7.95836 15.9759 8.13727 15.9975 8.35583L16.4951 8.30664L16.9927 8.25745C16.9278 7.60129 16.4421 7.06472 15.7959 6.93464L15.6973 7.4248ZM16.4951 8.30664L15.9975 8.35557C15.9993 8.37419 16 8.40189 16 8.52637H16.5H17C17 8.42399 17.0005 8.33708 16.9927 8.25771L16.4951 8.30664ZM16.5 8.52637H16V9.47363H16.5H17V8.52637H16.5ZM16.5 9.47363H16C16 9.59729 15.9993 9.62503 15.9975 9.64368L16.4951 9.69238L16.9927 9.74109C17.0005 9.66211 17 9.57598 17 9.47363H16.5ZM16.4951 9.69238L15.9975 9.64336C15.9759 9.86254 15.8136 10.0418 15.5981 10.0849L15.6963 10.5752L15.7944 11.0655C16.4418 10.9359 16.928 10.398 16.9927 9.74141L16.4951 9.69238ZM15.6963 10.5752L15.5981 10.0849C15.5804 10.0885 15.5547 10.0915 15.4289 10.104L15.4785 10.6016L15.5281 11.0991C15.6279 11.0892 15.7159 11.0812 15.7944 11.0655L15.6963 10.5752ZM15.4785 10.6016L15.4289 10.104C15.2356 10.1233 15.0835 10.1378 14.9695 10.1661L15.0898 10.6514L15.2102 11.1367C15.236 11.1303 15.2965 11.1222 15.5281 11.0991L15.4785 10.6016ZM15.0898 10.6514L14.9694 10.1661C13.9904 10.4091 13.5252 11.5295 14.0451 12.3943L14.4736 12.1367L14.9022 11.8791C14.729 11.5911 14.8837 11.2177 15.2103 11.1366L15.0898 10.6514ZM14.4736 12.1367L14.0452 12.3945C14.1063 12.496 14.2076 12.6169 14.3278 12.7638L14.7148 12.4473L15.1019 12.1307C15.0323 12.0457 14.9852 11.9882 14.9503 11.9438C14.9333 11.9222 14.9216 11.9067 14.9133 11.8953C14.9093 11.8897 14.9065 11.8857 14.9046 11.8829C14.9028 11.8801 14.902 11.8789 14.9021 11.8789L14.4736 12.1367ZM14.7148 12.4473L14.3278 12.7638C14.4028 12.8555 14.4221 12.8812 14.4334 12.8981L14.8496 12.6211L15.2659 12.3441C15.2225 12.279 15.1709 12.2151 15.1019 12.1307L14.7148 12.4473ZM14.8496 12.6211L14.4333 12.898C14.5551 13.0811 14.5429 13.3225 14.4035 13.4924L14.79 13.8096L15.1766 14.1268C15.595 13.6169 15.6311 12.8933 15.2659 12.3442L14.8496 12.6211ZM14.79 13.8096L14.4037 13.4921C14.3918 13.5066 14.3729 13.5265 14.2852 13.6141L14.6387 13.9678L14.9921 14.3214C15.0646 14.249 15.1258 14.1885 15.1763 14.127L14.79 13.8096ZM14.6387 13.9678L14.2854 13.614L13.6145 14.2839L13.9678 14.6377L14.3211 14.9915L14.992 14.3216L14.6387 13.9678ZM13.9678 14.6377L13.6143 14.2841C13.5253 14.373 13.5058 14.3917 13.4916 14.4034L13.8086 14.79L14.1256 15.1767C14.1876 15.1259 14.2495 15.0631 14.3212 14.9913L13.9678 14.6377ZM13.8086 14.79L13.4918 14.4032C13.3221 14.5422 13.0812 14.5542 12.8981 14.4324L12.6211 14.8486L12.3441 15.2649C12.8926 15.6299 13.6153 15.5946 14.1254 15.1769L13.8086 14.79ZM12.6211 14.8486L12.8982 14.4325C12.8823 14.4219 12.8596 14.4044 12.7648 14.3269L12.4482 14.7139L12.1317 15.1009C12.2124 15.1669 12.278 15.2208 12.344 15.2648L12.6211 14.8486ZM12.4482 14.7139L12.7648 14.3269C12.6156 14.2048 12.4958 14.1051 12.3944 14.0441L12.1367 14.4727L11.8791 14.9012C11.9015 14.9147 11.9486 14.9511 12.1317 15.1009L12.4482 14.7139ZM12.1367 14.4727L12.3943 14.0441C11.5301 13.5247 10.4099 13.9886 10.1662 14.967L10.6514 15.0879L11.1365 15.2088C11.2178 14.8827 11.591 14.728 11.8791 14.9012L12.1367 14.4727ZM10.6514 15.0879L10.1661 14.9673C10.1376 15.0819 10.1233 15.2361 10.104 15.4289L10.6016 15.4785L11.0991 15.5281C11.1224 15.2942 11.1302 15.2341 11.1366 15.2085L10.6514 15.0879ZM10.6016 15.4785L10.104 15.4289C10.0915 15.5547 10.0885 15.5803 10.0849 15.5982L10.5752 15.6963L11.0655 15.7944C11.0812 15.7158 11.0891 15.628 11.0991 15.5281L10.6016 15.4785ZM10.5752 15.6963L10.0849 15.598C10.0417 15.8138 9.86264 15.9759 9.64405 15.9976L9.69336 16.4951L9.74267 16.9927C10.3992 16.9276 10.9359 16.4411 11.0654 15.7945L10.5752 15.6963ZM9.69336 16.4951L9.64422 15.9975C9.62575 15.9994 9.59847 16 9.47363 16V16.5V17C9.57594 17 9.66294 17.0006 9.7425 16.9927L9.69336 16.4951ZM9.47363 16.5V16H8.52637V16.5V17H9.47363V16.5ZM8.52637 16.5V16C8.40189 16 8.37419 15.9993 8.35557 15.9975L8.30664 16.4951L8.25771 16.9927C8.33708 17.0005 8.42399 17 8.52637 17V16.5ZM8.30664 16.4951L8.35583 15.9975C8.13727 15.9759 7.95836 15.8141 7.91497 15.5986L7.4248 15.6973L6.93464 15.7959C7.06472 16.4421 7.60129 16.9278 8.25745 16.9927L8.30664 16.4951ZM7.4248 15.6973L7.91498 15.5986C7.91114 15.5796 7.9071 15.5496 7.89496 15.4286L7.39746 15.4785L6.89996 15.5284C6.91057 15.6342 6.91902 15.7183 6.93463 15.7959L7.4248 15.6973ZM7.39746 15.4785L7.89496 15.4286C7.87568 15.2365 7.86131 15.0825 7.83286 14.9681L7.34766 15.0889L6.86245 15.2096C6.86879 15.2351 6.87649 15.2945 6.89996 15.5284L7.39746 15.4785ZM7.34766 15.0889L7.83283 14.968C7.58902 13.9894 6.46785 13.5246 5.60335 14.0453L5.86133 14.4736L6.11931 14.9019C6.40712 14.7286 6.78112 14.8831 6.86249 15.2097L7.34766 15.0889ZM5.86133 14.4736L5.60323 14.0454C5.50211 14.1063 5.38259 14.2062 5.23503 14.327L5.55176 14.7139L5.86849 15.1008C6.05135 14.9511 6.09716 14.9153 6.11942 14.9019L5.86133 14.4736ZM5.55176 14.7139L5.23503 14.327C5.13617 14.4079 5.11648 14.4236 5.10162 14.4335L5.37891 14.8496L5.65619 15.2657C5.72308 15.2211 5.79206 15.1633 5.86849 15.1008L5.55176 14.7139ZM5.37891 14.8496L5.10188 14.4334C4.91891 14.5551 4.67769 14.5431 4.50763 14.4035L4.19043 14.79L3.87323 15.1765C4.38314 15.595 5.1067 15.6314 5.65593 15.2659L5.37891 14.8496ZM4.19043 14.79L4.50763 14.4035C4.49335 14.3918 4.47391 14.3733 4.38578 14.2851L4.03223 14.6387L3.67867 14.9922C3.75072 15.0643 3.81157 15.1259 3.87323 15.1765L4.19043 14.79ZM4.03223 14.6387L4.38578 14.2851L3.71488 13.6142L3.36133 13.9678L3.00777 14.3213L3.67867 14.9922L4.03223 14.6387ZM3.36133 13.9678L3.71488 13.6142C3.63004 13.5294 3.60915 13.5069 3.59657 13.4915L3.20996 13.8086L2.82336 14.1257C2.87328 14.1865 2.93191 14.2455 3.00777 14.3213L3.36133 13.9678ZM3.20996 13.8086L3.59659 13.4915C3.45701 13.3213 3.44507 13.0808 3.56666 12.8981L3.15039 12.6211L2.73412 12.3441C2.36864 12.8934 2.4054 13.616 2.82333 14.1256L3.20996 13.8086ZM3.15039 12.6211L3.56665 12.8981C3.57716 12.8823 3.59451 12.8598 3.67217 12.7648L3.28516 12.4482L2.89814 12.1317C2.83221 12.2123 2.77813 12.278 2.73413 12.3441L3.15039 12.6211ZM3.28516 12.4482L3.67217 12.7648C3.79416 12.6157 3.89393 12.4957 3.9548 12.3945L3.52637 12.1367L3.09794 11.8789C3.08445 11.9014 3.04759 11.949 2.89814 12.1317L3.28516 12.4482ZM3.52637 12.1367L3.95489 12.3943C4.47479 11.5295 4.00956 10.4091 3.03064 10.1661L2.91016 10.6514L2.78967 11.1366C3.1163 11.2177 3.27097 11.5911 3.09784 11.8791L3.52637 12.1367ZM2.91016 10.6514L3.03047 10.1661C2.91646 10.1378 2.7644 10.1233 2.5711 10.104L2.52148 10.6016L2.47187 11.0991C2.70353 11.1222 2.76397 11.1303 2.78984 11.1367L2.91016 10.6514ZM2.52148 10.6016L2.5711 10.104C2.44531 10.0915 2.41965 10.0885 2.40186 10.0849L2.30371 10.5752L2.20556 11.0655C2.28415 11.0812 2.37215 11.0892 2.47187 11.0991L2.52148 10.6016ZM2.30371 10.5752L2.40187 10.0849C2.18639 10.0418 2.02407 9.86254 2.00247 9.64336L1.50488 9.69238L1.00729 9.74141C1.07198 10.398 1.55816 10.9359 2.20555 11.0655L2.30371 10.5752ZM1.50488 9.69238L2.0025 9.64368C2.00068 9.62503 2 9.59729 2 9.47363H1.5H1C1 9.57598 0.999531 9.66211 1.00726 9.74109L1.50488 9.69238ZM1.5 9.47363H2V8.52637H1.5H1V9.47363H1.5ZM1.5 8.52637H2C2 8.40145 2.00063 8.37429 2.00246 8.3558L1.50488 8.30664L1.0073 8.25749C0.999441 8.33709 1 8.42401 1 8.52637H1.5ZM1.50488 8.30664L2.00246 8.35581C2.02406 8.13722 2.18585 7.95835 2.40138 7.91498L2.30273 7.4248L2.20408 6.93463C1.5579 7.06468 1.07216 7.60126 1.00731 8.25747L1.50488 8.30664ZM2.30273 7.4248L2.40119 7.91502C2.42041 7.91115 2.45104 7.907 2.57125 7.89498L2.52148 7.39746L2.47172 6.89994C2.36574 6.91054 2.28171 6.91904 2.20428 6.93459L2.30273 7.4248ZM2.52148 7.39746L2.57125 7.89498C2.75939 7.87616 2.91643 7.86247 3.03149 7.83393L2.91113 7.34863L2.79078 6.86333C2.79084 6.86332 2.78942 6.86367 2.78612 6.86432C2.7828 6.86498 2.77796 6.86586 2.77119 6.86695C2.75724 6.86919 2.73805 6.87184 2.71079 6.87508C2.65462 6.88176 2.5809 6.88902 2.47172 6.89994L2.52148 7.39746ZM2.91113 7.34863L3.03198 7.83381C4.00981 7.59025 4.47494 6.47035 3.95603 5.60594L3.52734 5.86328L3.09865 6.12063C3.27139 6.40837 3.11664 6.78217 2.79028 6.86346L2.91113 7.34863ZM3.52734 5.86328L3.95589 5.6057C3.89489 5.50421 3.79504 5.3842 3.67315 5.23518L3.28613 5.55176L2.89912 5.86833C3.04879 6.05131 3.08533 6.09845 3.0988 6.12087L3.52734 5.86328ZM3.28613 5.55176L3.67315 5.23518C3.59429 5.13878 3.57709 5.11662 3.5667 5.10101L3.15039 5.37793L2.73408 5.65485C2.77837 5.72144 2.83373 5.7884 2.89912 5.86833L3.28613 5.55176ZM3.15039 5.37793L3.56671 5.10102C3.4451 4.91818 3.4571 4.67757 3.59658 4.50749L3.20996 4.19043L2.82334 3.87337C2.40536 4.38305 2.36882 5.10568 2.73407 5.65483L3.15039 5.37793ZM3.20996 4.19043L3.59654 4.50753C3.60917 4.49214 3.63016 4.46948 3.7148 4.38488L3.36133 4.03125L3.00786 3.67762C2.9318 3.75364 2.8733 3.81246 2.82338 3.87333L3.20996 4.19043ZM3.36133 4.03125L3.71462 4.38506L4.38552 3.71514L4.03223 3.36133L3.67893 3.00752L3.00803 3.67744L3.36133 4.03125ZM4.03223 3.36133L4.3857 3.71496C4.47461 3.6261 4.4942 3.6073 4.50841 3.59565L4.19141 3.20898L3.8744 2.82232C3.81243 2.87313 3.7505 2.93598 3.67875 3.00769L4.03223 3.36133ZM4.19141 3.20898L4.50821 3.59581C4.67795 3.45679 4.91878 3.44479 5.10192 3.56666L5.37891 3.15039L5.65589 2.73412C5.10739 2.36914 4.38469 2.4044 3.8746 2.82216L4.19141 3.20898ZM5.37891 3.15039L5.10178 3.56657C5.11767 3.57714 5.14034 3.59459 5.2352 3.67218L5.55176 3.28516L5.86832 2.89813C5.78763 2.83213 5.72203 2.77816 5.65603 2.73421L5.37891 3.15039ZM5.55176 3.28516L5.2352 3.67218C5.38207 3.79231 5.50292 3.89366 5.60452 3.95479L5.8623 3.52637L6.12009 3.09794C6.12016 3.09799 6.11892 3.09724 6.11613 3.09538C6.11333 3.0935 6.10928 3.0907 6.10372 3.08669C6.09227 3.07842 6.07681 3.06673 6.05522 3.04974C6.01076 3.01475 5.95335 2.96768 5.86832 2.89813L5.55176 3.28516ZM5.8623 3.52637L5.60461 3.95485C6.46933 4.4749 7.59041 4.00929 7.83384 3.03088L7.34863 2.91016L6.86342 2.78944C6.78215 3.1161 6.40777 3.27096 6.12 3.09789L5.8623 3.52637ZM7.34863 2.91016L7.83393 3.03052C7.86244 2.91555 7.87615 2.75841 7.89498 2.57029L7.39746 2.52051L6.89995 2.47073C6.88902 2.5799 6.88175 2.65365 6.87507 2.70984C6.87183 2.73712 6.86918 2.75632 6.86694 2.77027C6.86585 2.77704 6.86497 2.78188 6.86431 2.78519C6.86366 2.78848 6.86331 2.78988 6.86334 2.7898L7.34863 2.91016ZM7.39746 2.52051L7.89498 2.57029C7.90673 2.45284 7.91112 2.42164 7.91509 2.4018L7.4248 2.30371L6.93452 2.20563C6.91924 2.28202 6.91069 2.36334 6.89995 2.47073L7.39746 2.52051ZM7.4248 2.30371L7.91503 2.40208C7.95839 2.18599 8.1375 2.02402 8.35579 2.00246L8.30664 1.50488L8.25749 1.0073C7.60056 1.07219 7.06425 1.55911 6.93458 2.20534L7.4248 2.30371ZM8.30664 1.50488L8.35571 2.00247C8.37414 2.00065 8.40124 2 8.52539 2V1.5V1C8.42334 1 8.33691 0.999472 8.25757 1.0073L8.30664 1.50488ZM8.52539 1.5V2H9.47363V1.5V1H8.52539V1.5ZM9.47363 1.5V2C9.59729 2 9.62503 2.00068 9.64368 2.0025L9.69238 1.50488L9.74109 1.00726C9.66211 0.999531 9.57598 1 9.47363 1V1.5ZM9 6V5.5C7.067 5.5 5.5 7.067 5.5 9H6H6.5C6.5 7.61929 7.61929 6.5 9 6.5V6ZM6 9H5.5C5.5 10.933 7.067 12.5 9 12.5V12V11.5C7.61929 11.5 6.5 10.3807 6.5 9H6ZM9 12V12.5C10.933 12.5 12.5 10.933 12.5 9H12H11.5C11.5 10.3807 10.3807 11.5 9 11.5V12ZM12 9H12.5C12.5 7.067 10.933 5.5 9 5.5V6V6.5C10.3807 6.5 11.5 7.61929 11.5 9H12Z" fill="#171717"/>
</svg>
