<svg width="25" height="26" viewBox="0 0 25 26" fill="none" xmlns="http://www.w3.org/2000/svg">
<path d="M4.10449 9.75C4.10449 6.68587 4.10449 5.15381 5.00629 4.2019C5.90809 3.25 7.35953 3.25 10.2624 3.25H14.3676C17.2705 3.25 18.7219 3.25 19.6237 4.2019C20.5255 5.15381 20.5255 6.68587 20.5255 9.75V17.1466C20.5255 20.0535 20.5255 21.5069 19.659 21.9515C18.7925 22.396 17.7098 21.4981 15.5443 19.7021L14.8513 19.1273C13.6338 18.1175 13.0249 17.6126 12.315 17.6126C11.6051 17.6126 10.9963 18.1175 9.77865 19.1273L9.08568 19.7021C6.92023 21.4981 5.83751 22.396 4.971 21.9515C4.10449 21.5069 4.10449 20.0535 4.10449 17.1466V9.75Z" stroke="#FEFEFC" stroke-width="2"/>
</svg>
