<svg width="68" height="46" viewBox="0 0 68 46" fill="none" xmlns="http://www.w3.org/2000/svg">
<path d="M0 3C0 1.34315 1.34315 0 3 0H45C57.7025 0 68 10.2975 68 23V23C68 35.7025 57.7025 46 45 46H3C1.34314 46 0 44.6569 0 43V3Z" fill="#171717"/>
<path d="M31.5 30.5C36.4706 30.5 40.5 26.4706 40.5 21.5C40.5 16.5294 36.4706 12.5 31.5 12.5C26.5294 12.5 22.5 16.5294 22.5 21.5C22.5 26.4706 26.5294 30.5 31.5 30.5Z" stroke="#FEFEFC"/>
<path d="M45 35L40.5 30.5" stroke="#FEFEFC" stroke-linecap="round"/>
</svg>
